<?xml version="1.0" encoding="UTF-8" standalone="no"?>
<!-- Created with Inkscape (http://www.inkscape.org/) -->

<svg
   width="11.351913mm"
   height="9.359787mm"
   viewBox="0 0 11.351913 9.359787"
   version="1.1"
   id="svg5"
   xml:space="preserve"
   inkscape:export-filename="logo_big.png"
   inkscape:export-xdpi="215.32919"
   inkscape:export-ydpi="215.32919"
   inkscape:version="1.2.2 (b0a8486541, 2022-12-01)"
   sodipodi:docname="desenho.svg"
   xmlns:inkscape="http://www.inkscape.org/namespaces/inkscape"
   xmlns:sodipodi="http://sodipodi.sourceforge.net/DTD/sodipodi-0.dtd"
   xmlns="http://www.w3.org/2000/svg"
   xmlns:svg="http://www.w3.org/2000/svg"><sodipodi:namedview
     id="namedview7"
     pagecolor="#ffffff"
     bordercolor="#000000"
     borderopacity="0.25"
     inkscape:showpageshadow="2"
     inkscape:pageopacity="0.0"
     inkscape:pagecheckerboard="0"
     inkscape:deskcolor="#d1d1d1"
     inkscape:document-units="mm"
     showgrid="false"
     inkscape:zoom="11.313709"
     inkscape:cx="318.5958"
     inkscape:cy="385.85933"
     inkscape:window-width="2496"
     inkscape:window-height="1064"
     inkscape:window-x="0"
     inkscape:window-y="0"
     inkscape:window-maximized="1"
     inkscape:current-layer="layer1" /><defs
     id="defs2" /><g
     inkscape:label="Camada 1"
     inkscape:groupmode="layer"
     id="layer1"
     transform="translate(-103.52481,-90.375768)"><path
       id="path_0"
       style="fill:#ffffff;stroke:#ffffff;stroke-width:0.00203138;stroke-opacity:1"
       d="m 108.46602,90.376876 c -0.20984,8.63e-4 -0.41839,0.05357 -0.6196,0.155546 -0.11721,0.05952 -0.14704,0.08974 -0.23926,0.162264 -0.0815,0.06378 -0.14894,0.111407 -0.1788,0.222726 0.22101,0.148087 0.42428,0.428252 0.40152,0.702283 -0.21552,0.05017 -0.17847,-0.01848 -0.2837,-0.217558 -0.0514,-0.09751 -0.0994,-0.155889 -0.17311,-0.22841 -0.3169,-0.311612 -0.81581,-0.329911 -1.15342,-0.05994 -0.12656,0.101368 -0.29175,0.291603 -0.29663,0.505913 0.21167,0.0047 0.48866,0.219359 0.57723,0.351399 -0.0167,0.0715 -0.0472,0.104267 -0.10025,0.150379 -0.12656,-0.02946 -0.12738,-0.0786 -0.22996,-0.146245 -0.27058,-0.178151 -0.59318,-0.214623 -0.88935,-0.09457 -0.41664,0.168806 -0.56173,0.513186 -0.56173,0.968416 l 0.30076,-0.02481 c 0.11315,0 0.11695,0.171467 0.0139,0.212907 -0.15499,0.06236 -0.64079,0.0055 -0.64079,0.665076 0,0.371944 0.42633,0.470783 0.42633,0.577226 0,0.267937 -0.41387,0.04154 -0.45165,-0.100253 -0.27444,0.02276 -0.47646,0.450834 -0.47646,0.827857 0,0.290281 0.25667,0.668897 0.47646,0.727604 0.0445,-0.09263 0.0425,-0.113782 0.0997,-0.201538 0.0581,-0.08898 0.091,-0.149862 0.20154,-0.149862 0.16901,0 0.0666,0.18973 0.0217,0.247013 -0.1164,0.14829 -0.14587,0.352542 -0.10645,0.541053 h 0.28525 v -1.12551 c 0,-0.112742 0.0457,-0.215446 0.11989,-0.289388 0.0741,-0.07414 0.17613,-0.119889 0.28887,-0.119889 h 0.76326 c 0.11274,0 0.21493,0.04575 0.28887,0.119889 0.0741,0.07414 0.11989,0.176646 0.11989,0.289388 v 1.125513 h 1.12551 c 0.11275,0 0.21545,0.04574 0.28939,0.119889 0.006,0.0059 0.0116,0.01229 0.017,0.0186 0.0118,-0.131633 0.0383,-0.256955 0.0481,-0.299207 -0.5182,0 -0.82785,-0.349996 -0.82785,-0.752409 0,-0.15012 0.11473,-0.501778 0.25063,-0.501778 0.0981,0 0.0113,-0.01085 0.0672,0.03307 l 0.0584,0.06718 c -0.0278,0.119648 -0.12506,0.215571 -0.12506,0.326079 0,0.194401 -0.0107,0.284798 0.16795,0.458886 0.12147,0.118429 0.34793,0.180892 0.49764,0.105937 0.14606,-0.07313 0.28789,-0.564823 1.09089,-0.564823 0.16028,0 0.27595,0.01834 0.27595,0.150378 0,0.165963 -0.21476,0.07545 -0.32607,0.07545 -0.43005,0 -0.79958,0.318486 -0.90744,0.698148 -0.0894,0.315066 0.0401,0.523305 -0.0785,0.572058 -0.0324,0.01362 -0.0588,0.0048 -0.0884,0.0072 v 0.657324 c 0,0.05139 -0.01,0.100946 -0.0274,0.146244 0.10381,0.0053 0.10922,-0.09023 0.0927,-0.183447 -0.0171,-0.09663 0.0229,-0.09842 0.0637,-0.110139 0.31566,0.147092 0.59174,0.28699 0.9686,0.343664 0.19664,-0.0053 0.42345,-0.08244 0.5886,-0.139527 0.39226,-0.135492 0.66583,-0.345228 0.9679,-0.541052 0.40139,-0.259812 0.85979,-0.497644 1.70687,-0.497644 l 1.10329,0.02584 c 0.29902,0.01584 0.61459,0.139395 0.84698,-0.132808 0.17591,-0.206185 0.23907,-0.524267 0.12247,-0.786516 -0.14849,-0.333754 -0.51728,-0.320922 -0.51728,-0.486275 0,-0.05424 0.0415,-0.09428 0.0879,-0.107487 0.0435,-0.01239 0.10341,0.01247 0.15968,0.03462 0.13265,0.05201 0.17434,0.103139 0.27957,0.173633 0.52206,-0.121681 0.69785,-1.246014 -0.0899,-1.516186 -0.42923,-0.147071 -0.29989,-0.02953 -0.26252,-0.392741 0.0427,-0.414399 -0.10916,-0.789914 -0.45165,-1.000973 -0.55924,-0.344316 -1.02784,0.07572 -1.02784,-0.226342 0,-0.219591 0.66402,-0.150896 0.7276,-0.150896 -0.0506,-0.21695 -0.0946,-0.331624 -0.23151,-0.470772 -0.42801,-0.435322 -1.16923,-0.214214 -1.29863,0.270268 -0.44852,0 -0.0246,-0.378199 0.0749,-0.5271 -0.3043,-0.02539 -0.38597,-0.130363 -0.75344,0.04961 -0.51658,0.252905 -0.44908,0.648156 -0.52607,0.979268 -0.32969,0.07679 -0.4472,0.108005 -0.65887,0.319877 -0.73393,0.733932 -0.0186,1.516272 -0.0186,1.562179 0,0.0969 -0.0497,0.16143 -0.13539,0.137459 -0.11945,-0.03331 -0.0181,6.73e-4 -0.0625,-0.03772 -0.13489,-0.116601 -0.24326,-0.338008 -0.29404,-0.51108 -0.093,-0.317502 -0.0344,-0.448151 -0.01,-0.743107 -0.17247,-0.04021 -0.27725,-0.125574 -0.5271,-0.125574 -0.47819,0 -0.78688,0.341966 -0.88419,0.746208 -0.0417,0.173073 0.047,0.433049 -0.14417,0.433049 -0.20152,0 -0.0249,-0.369993 -0.14211,-0.510564 -0.33945,-0.407289 -1.33842,-0.161714 -1.33842,0.610816 0,0.116398 0.15603,0.426847 -0.0749,0.426847 -0.23239,0 -0.28242,-1.0237 0.45578,-1.376143 0.58504,-0.279313 0.91909,0.07309 1.09968,0.121439 0.0677,-0.127773 0.15271,-0.273734 0.25631,-0.371036 0.2978,-0.279721 0.75771,-0.40183 1.1591,-0.266134 0.0892,0.03027 0.16351,0.0676 0.2403,0.08527 0.1879,-0.355082 0.4643,-0.605793 0.8785,-0.702283 0,-0.196026 0.0618,-0.385075 0.13332,-0.519348 l 0.20774,-0.2682 c 0.0504,-0.05078 0.0438,-0.02827 0.0853,-0.09043 -0.30531,-0.161493 -0.63148,-0.24717 -0.97823,-0.05013 -0.47717,0.270984 -0.38242,0.727087 -0.57723,0.727087 -0.27687,0 0.0659,-0.565972 0.12868,-0.649056 0.0445,-0.05891 0.086,-0.100368 0.12195,-0.153996 -0.0821,-0.122492 -0.27239,-0.286649 -0.41703,-0.360184 -0.20669,-0.105022 -0.41802,-0.155893 -0.62786,-0.15503 z m 4.30672,2.421558 v 5.17e-4 c 0.012,0.0029 0.0237,0.0066 0.0346,0.01085 l 0.005,0.0021 c 0.24721,0.105838 0.1686,0.599641 0.0703,0.798917 -0.066,0.133664 -0.11797,0.166505 -0.18501,0.266651 0.14443,0.215732 0.20051,0.294997 0.20051,0.602547 0,0.495857 -0.4956,0.84521 -0.85266,0.802535 -0.11032,-0.01318 -0.16628,-0.140236 0,-0.200504 0.19883,-0.07207 0.2997,-0.0592 0.43356,-0.19327 0.29008,-0.29008 0.21431,-0.592607 0.0181,-0.885734 -0.20781,0.109896 -0.54719,0.137405 -0.73794,0.03462 -0.14971,-0.08085 -0.0446,-0.235128 0.01,-0.235128 0.0461,0 0.69669,0.241326 0.91933,-0.33538 0.16982,-0.439994 -0.14086,-0.47287 0.0842,-0.668693 z m -1.80661,1.65623 c 0.37154,0.08653 0.38296,1.088521 -0.3266,1.312581 -0.0888,0.02742 -0.18883,0.04238 -0.30075,0.04238 -0.0816,0 -0.11292,-0.07353 -0.10026,-0.125574 0.0434,-0.178315 0.22736,-0.02725 0.50282,-0.224276 0.23827,-0.170431 0.3193,-0.469535 0.16898,-0.775663 -0.0583,-0.118428 -0.0293,-0.155502 0.0558,-0.229443 z m -5.68803,0.373103 c -0.15914,1.9e-5 -0.21749,0.09722 -0.21749,0.217513 v 1.316716 c -0.44293,1.02e-4 -0.92581,5.39e-4 -1.31672,5.17e-4 -0.11984,0 -0.21807,0.09822 -0.21807,0.218074 v 0.762744 c 0,0.119845 0.0982,0.218075 0.21807,0.218075 h 1.31672 v 1.316715 c 0,0.119847 0.0977,0.217558 0.21755,0.217558 h 0.76326 c 0.11985,0 0.21756,-0.09771 0.21756,-0.217558 v -1.316715 h 1.31672 c 0.1934,0 0.2185,-0.09987 0.2185,-0.21867 v -0.762744 c 0,-0.155579 -0.0956,-0.218041 -0.21813,-0.218041 h -1.31671 v -1.316716 c 0,-0.162367 -0.0698,-0.217575 -0.21808,-0.217558 z m 7.39438,1.736329 c -0.23308,2.27e-4 -0.51404,0.0351 -0.68833,0.06253 -0.58077,0.09121 -1.02373,0.298382 -1.41903,0.563273 0.43857,0.828593 1.75447,1.253953 2.55178,0.569991 l 0.47904,-0.574642 c 0.0981,-0.180183 0.12936,-0.303467 0.18035,-0.522448 l -0.89245,-0.08578 c -0.0613,-0.0092 -0.13366,-0.013 -0.21136,-0.01292 z m -2.30838,0.750858 c -0.0973,0.0652 -0.24261,0.148519 -0.35089,0.201538 -0.10969,0.05363 -0.2705,0.119392 -0.40152,0.149862 v 0.05013 c 0.63846,0.148696 1.45521,1.244925 1.45521,1.982308 0.64699,0.05378 0.69457,0.109088 0.84387,-0.33538 0.12757,-0.37966 0.10904,-0.632804 0.10904,-1.019576 -0.60271,0 -1.37945,-0.506612 -1.65571,-1.028878 z"
       sodipodi:nodetypes="ccccccsccccccccssscscsscccscsscscssccssccsssssscccscsccccccccsscccscscccccccsccccssscssscscccccccssccsccccccscssccsccccsssaccsssscccsssscssssssscsssccccscccccccccccsc"
       inkscape:export-filename="Projetos/NeurosaudeApp/assets/img/logo.svg"
       inkscape:export-xdpi="215.32919"
       inkscape:export-ydpi="215.32919" /></g></svg>
